<?xml version="1.0" encoding="utf-8"?>
<!-- Generator: Adobe Illustrator 26.0.3, SVG Export Plug-In . SVG Version: 6.00 Build 0)  -->
<svg version="1.1" id="Layer_1" xmlns="http://www.w3.org/2000/svg" xmlns:xlink="http://www.w3.org/1999/xlink" x="0px" y="0px"
	 viewBox="0 0 132.52 23.72" style="enable-background:new 0 0 132.52 23.72;" xml:space="preserve">
<style type="text/css">
	.st0{fill:#FFF;}
</style>
<path class="st0" d="M12.75,20.4c-0.1,0.25-0.28,0.52-0.52,0.8c-0.24,0.28-0.54,0.54-0.89,0.77c-0.35,0.23-0.75,0.42-1.2,0.56
	c-0.45,0.15-0.93,0.22-1.45,0.22c-2,0-3.4-0.49-4.21-1.45c-0.81-0.97-1.22-2.44-1.22-4.42v-5.03c0-0.98,0.09-1.83,0.28-2.56
	c0.19-0.73,0.49-1.33,0.92-1.81C4.88,7,5.44,6.65,6.13,6.42c0.69-0.23,1.54-0.34,2.56-0.34c0.44,0,0.88,0.07,1.33,0.22
	c0.45,0.14,0.85,0.33,1.22,0.56c0.36,0.23,0.68,0.47,0.95,0.73c0.27,0.26,0.46,0.51,0.56,0.76V0.8h3.68v21.67h-2.12L12.75,20.4z
	 M12.75,12.44c0-0.5-0.11-0.94-0.34-1.33c-0.23-0.39-0.51-0.71-0.84-0.97c-0.33-0.26-0.69-0.45-1.08-0.58
	C10.1,9.44,9.74,9.38,9.41,9.38c-0.31,0-0.61,0.02-0.9,0.06C8.21,9.49,7.94,9.57,7.7,9.71c-0.24,0.14-0.43,0.33-0.56,0.58
	c-0.14,0.25-0.2,0.57-0.2,0.97v6.21c0,0.42,0.07,0.75,0.2,1c0.13,0.25,0.32,0.45,0.55,0.59c0.23,0.15,0.49,0.25,0.78,0.3
	c0.29,0.05,0.6,0.08,0.94,0.08c0.33,0,0.69-0.06,1.08-0.19c0.39-0.12,0.74-0.32,1.08-0.58c0.33-0.26,0.61-0.58,0.84-0.97
	c0.23-0.38,0.34-0.83,0.34-1.33V12.44z"/>
<path class="st0" d="M31.71,22.43l-1.58-2.09c-0.11,0.27-0.3,0.55-0.58,0.83c-0.28,0.28-0.61,0.54-0.98,0.76
	c-0.38,0.23-0.8,0.42-1.26,0.56c-0.47,0.15-0.94,0.22-1.42,0.22c-0.89,0-1.65-0.1-2.28-0.3c-0.62-0.2-1.13-0.52-1.53-0.97
	c-0.4-0.45-0.68-1.03-0.86-1.73c-0.18-0.71-0.27-1.56-0.27-2.56V6.32h3.69v11.08c0,0.81,0.15,1.35,0.47,1.61
	c0.31,0.26,0.77,0.39,1.37,0.39c0.35,0,0.74-0.08,1.16-0.23c0.42-0.16,0.8-0.37,1.17-0.64c0.36-0.27,0.67-0.59,0.92-0.97
	c0.25-0.38,0.37-0.78,0.37-1.22V6.32h3.71l-0.03,16.11H31.71z"/>
<path class="st0" d="M60.32,22.43h-3.68V11.5c0-0.81-0.16-1.36-0.47-1.65c-0.32-0.29-0.78-0.44-1.38-0.44c-0.34,0-0.7,0.07-1.1,0.2
	c-0.4,0.13-0.77,0.33-1.11,0.59c-0.35,0.26-0.63,0.58-0.86,0.97c-0.23,0.39-0.35,0.83-0.35,1.33v9.93h-3.68V11.44
	c0-0.75-0.2-1.28-0.61-1.58c-0.41-0.3-0.91-0.45-1.52-0.45c-0.33,0-0.68,0.07-1.05,0.2c-0.36,0.13-0.7,0.33-1.01,0.58
	c-0.31,0.25-0.57,0.57-0.78,0.95c-0.21,0.39-0.31,0.83-0.31,1.33v9.96h-3.68V6.32h2.12l1.56,2c0.1-0.27,0.28-0.54,0.53-0.81
	c0.25-0.27,0.55-0.51,0.89-0.73c0.34-0.22,0.73-0.4,1.15-0.53c0.43-0.14,0.88-0.2,1.36-0.2c1,0,1.85,0.21,2.54,0.64
	c0.7,0.43,1.29,1,1.79,1.7c0.21-0.21,0.46-0.45,0.75-0.73c0.29-0.28,0.63-0.53,1.01-0.76c0.38-0.23,0.82-0.43,1.29-0.59
	c0.48-0.17,1.02-0.25,1.62-0.25c1.87,0,3.17,0.48,3.9,1.45c0.73,0.97,1.09,2.46,1.09,4.48V22.43z"/>
<path class="st0" d="M71.06,19.4c0.29,0,0.6-0.03,0.94-0.09c0.33-0.06,0.64-0.17,0.92-0.33c0.28-0.16,0.51-0.37,0.69-0.66
	c0.18-0.28,0.27-0.64,0.27-1.08h3.68c0,0.92-0.17,1.72-0.5,2.4c-0.33,0.69-0.79,1.26-1.37,1.72c-0.58,0.46-1.27,0.8-2.06,1.01
	c-0.79,0.22-1.64,0.33-2.56,0.33c-2.02,0-3.62-0.48-4.81-1.45c-1.19-0.97-1.78-2.41-1.78-4.32v-5.03c0-1.98,0.59-3.45,1.78-4.42
	c1.18-0.97,2.77-1.45,4.74-1.45c0.98,0,1.88,0.12,2.7,0.36c0.82,0.24,1.52,0.6,2.11,1.09c0.58,0.49,1.04,1.1,1.36,1.83
	c0.32,0.73,0.48,1.59,0.48,2.59v3.37h-9.49v1.97c0,0.42,0.09,0.76,0.26,1.03c0.18,0.27,0.41,0.49,0.69,0.66
	c0.28,0.17,0.59,0.29,0.94,0.36C70.39,19.37,70.73,19.4,71.06,19.4 M68.16,12.25h5.81V11.6c0-0.42-0.09-0.77-0.28-1.05
	c-0.19-0.28-0.43-0.51-0.72-0.69c-0.29-0.17-0.61-0.31-0.95-0.39C71.67,9.39,71.34,9.35,71,9.35c-0.31,0-0.64,0.04-0.98,0.12
	c-0.34,0.08-0.65,0.21-0.92,0.39c-0.27,0.18-0.5,0.41-0.67,0.69c-0.18,0.28-0.26,0.63-0.26,1.05V12.25z"/>
<path class="st0" d="M90.14,20.4c-0.1,0.25-0.28,0.52-0.52,0.8c-0.24,0.28-0.54,0.54-0.89,0.77c-0.35,0.23-0.76,0.42-1.2,0.56
	c-0.45,0.15-0.93,0.22-1.45,0.22c-2,0-3.4-0.49-4.21-1.45c-0.81-0.97-1.22-2.44-1.22-4.42v-5.03c0-0.98,0.09-1.83,0.28-2.56
	c0.19-0.73,0.49-1.33,0.92-1.81c0.43-0.48,0.98-0.83,1.67-1.06c0.69-0.23,1.54-0.34,2.56-0.34c0.44,0,0.88,0.07,1.33,0.22
	c0.45,0.14,0.85,0.33,1.22,0.56c0.36,0.23,0.68,0.47,0.95,0.73c0.27,0.26,0.46,0.51,0.56,0.76V0.8h3.68v21.67H91.7L90.14,20.4z
	 M90.14,12.44c0-0.5-0.11-0.94-0.34-1.33c-0.23-0.39-0.51-0.71-0.84-0.97c-0.33-0.26-0.69-0.45-1.08-0.58
	c-0.39-0.12-0.74-0.19-1.08-0.19c-0.31,0-0.61,0.02-0.9,0.06c-0.29,0.04-0.56,0.13-0.8,0.26c-0.24,0.14-0.43,0.33-0.56,0.58
	c-0.14,0.25-0.2,0.57-0.2,0.97v6.21c0,0.42,0.07,0.75,0.2,1c0.13,0.25,0.32,0.45,0.55,0.59c0.23,0.15,0.49,0.25,0.78,0.3
	c0.29,0.05,0.6,0.08,0.94,0.08c0.33,0,0.69-0.06,1.08-0.19c0.38-0.12,0.74-0.32,1.08-0.58c0.33-0.26,0.61-0.58,0.84-0.97
	c0.23-0.38,0.34-0.83,0.34-1.33V12.44z"/>
<path class="st0" d="M102.5,4.23h-3.84V0.8h3.84V4.23z M102.47,22.43h-3.78V6.32h3.78V22.43z"/>
<path class="st0" d="M105.44,6.32h1.81l1.56-4.21h2.12v4.21h4.53v3.22h-4.53v8.52c0,0.9,0.45,1.35,1.34,1.35
	c0.31,0,0.76-0.05,1.34-0.14c0.58-0.09,1.32-0.25,2.22-0.48V22c-0.25,0.1-0.56,0.2-0.92,0.29c-0.36,0.09-0.73,0.17-1.09,0.23
	c-0.36,0.06-0.72,0.11-1.06,0.14c-0.34,0.03-0.63,0.05-0.86,0.05c-0.67,0-1.28-0.07-1.84-0.2c-0.56-0.13-1.05-0.37-1.47-0.7
	s-0.74-0.78-0.98-1.34c-0.24-0.56-0.36-1.27-0.36-2.12v-8.8h-1.81V6.32z"/>
<path class="st0" d="M124.23,19.4c0.29,0,0.6-0.03,0.94-0.09c0.33-0.06,0.64-0.17,0.92-0.33c0.28-0.16,0.51-0.37,0.69-0.65
	c0.18-0.28,0.27-0.64,0.27-1.08h3.68c0,0.92-0.17,1.72-0.5,2.4c-0.33,0.69-0.79,1.26-1.37,1.72c-0.58,0.46-1.27,0.8-2.06,1.01
	c-0.79,0.22-1.64,0.33-2.56,0.33c-2.02,0-3.62-0.49-4.81-1.45c-1.19-0.97-1.78-2.41-1.78-4.32v-5.03c0-1.98,0.59-3.45,1.78-4.42
	c1.18-0.97,2.77-1.45,4.74-1.45c0.98,0,1.88,0.12,2.7,0.36c0.82,0.24,1.53,0.6,2.11,1.09c0.58,0.49,1.04,1.1,1.36,1.83
	c0.32,0.73,0.48,1.59,0.48,2.59v3.37h-9.49v1.97c0,0.42,0.09,0.76,0.26,1.03c0.18,0.27,0.41,0.49,0.69,0.65
	c0.28,0.17,0.59,0.29,0.94,0.36C123.56,19.37,123.9,19.4,124.23,19.4 M123.08,4.2h-3.81V0.8h3.81V4.2z M121.33,12.25h5.81V11.6
	c0-0.42-0.09-0.76-0.28-1.05c-0.19-0.28-0.43-0.51-0.72-0.69c-0.29-0.18-0.61-0.31-0.95-0.39c-0.34-0.08-0.68-0.12-1.01-0.12
	c-0.31,0-0.64,0.04-0.98,0.12s-0.65,0.21-0.92,0.39c-0.27,0.18-0.49,0.41-0.67,0.69c-0.18,0.28-0.26,0.63-0.26,1.05V12.25z
	 M129.35,4.2h-3.81V0.8h3.81V4.2z"/>
</svg>
