<?xml version="1.0" encoding="utf-8"?>
<!-- Generator: Adobe Illustrator 26.0.3, SVG Export Plug-In . SVG Version: 6.00 Build 0)  -->
<svg version="1.1" id="Layer_1" xmlns="http://www.w3.org/2000/svg" xmlns:xlink="http://www.w3.org/1999/xlink" x="0px" y="0px"
	 viewBox="0 0 112.42 73.13" style="enable-background:new 0 0 112.42 73.13;" xml:space="preserve">
<style type="text/css">
	.st0{fill:#231F20;}
	.st1{font-family:'Bardhi';}
	.st2{font-size:60.7921px;}
	.st3{letter-spacing:-2;}
	.st4{font-family:'MyriadPro-Regular';}
	.st5{fill:#293B8F;}
</style>
<g>
	<text transform="matrix(1 0 0 1 7.0735 51.6123)"><tspan x="0" y="0" class="st0 st1 st2 st3">l</tspan><tspan x="15.44" y="0" class="st0 st1 st2">o</tspan><tspan x="49.73" y="0" class="st0 st1 st2 st3">g</tspan><tspan x="80.12" y="0" class="st0 st4 st2">*</tspan></text>
	<path class="st5" d="M3.43,68.53c-0.04,0.09-0.1,0.19-0.19,0.29c-0.09,0.1-0.19,0.19-0.32,0.28s-0.27,0.15-0.43,0.2
		c-0.16,0.05-0.34,0.08-0.53,0.08c-0.72,0-1.23-0.17-1.52-0.53C0.15,68.5,0,67.97,0,67.26v-1.82c0-0.35,0.03-0.66,0.1-0.92
		c0.07-0.26,0.18-0.48,0.33-0.65c0.15-0.17,0.36-0.3,0.6-0.38c0.25-0.08,0.56-0.12,0.92-0.12c0.16,0,0.32,0.03,0.48,0.08
		c0.16,0.05,0.31,0.12,0.44,0.2c0.13,0.08,0.25,0.17,0.34,0.27s0.17,0.19,0.2,0.28v-2.73h1.33v7.83H3.99L3.43,68.53z M3.43,65.65
		c0-0.18-0.04-0.34-0.12-0.48C3.22,65.04,3.12,64.92,3,64.83s-0.25-0.16-0.39-0.21c-0.14-0.05-0.27-0.07-0.39-0.07
		c-0.11,0-0.22,0.01-0.33,0.02c-0.11,0.02-0.2,0.05-0.29,0.1c-0.09,0.05-0.16,0.12-0.2,0.21c-0.05,0.09-0.07,0.21-0.07,0.35v2.24
		c0,0.15,0.03,0.27,0.07,0.36c0.05,0.09,0.11,0.16,0.2,0.21c0.08,0.05,0.18,0.09,0.28,0.11c0.11,0.02,0.22,0.03,0.34,0.03
		c0.12,0,0.25-0.02,0.39-0.07C2.75,68.07,2.88,68,3,67.9c0.12-0.09,0.22-0.21,0.31-0.35c0.08-0.14,0.12-0.3,0.12-0.48V65.65z"/>
	<path class="st5" d="M10.28,69.26l-0.57-0.76c-0.04,0.1-0.11,0.2-0.21,0.3c-0.1,0.1-0.22,0.19-0.36,0.28
		c-0.13,0.08-0.29,0.15-0.46,0.2c-0.17,0.05-0.34,0.08-0.51,0.08c-0.32,0-0.6-0.04-0.82-0.11c-0.22-0.07-0.41-0.19-0.55-0.35
		c-0.14-0.16-0.25-0.37-0.31-0.63c-0.07-0.26-0.1-0.56-0.1-0.92v-3.91h1.33v4c0,0.29,0.06,0.49,0.17,0.58
		c0.11,0.09,0.28,0.14,0.5,0.14c0.13,0,0.27-0.03,0.42-0.08c0.15-0.05,0.29-0.13,0.42-0.23c0.13-0.1,0.24-0.21,0.33-0.35
		c0.09-0.14,0.13-0.28,0.13-0.44v-3.62h1.34l-0.01,5.82H10.28z"/>
	<path class="st5" d="M20.61,69.26h-1.33v-3.95c0-0.29-0.06-0.49-0.17-0.6c-0.11-0.1-0.28-0.16-0.5-0.16c-0.12,0-0.25,0.02-0.4,0.07
		c-0.14,0.05-0.28,0.12-0.4,0.21c-0.12,0.09-0.23,0.21-0.31,0.35c-0.08,0.14-0.12,0.3-0.12,0.48v3.59h-1.33v-3.97
		c0-0.27-0.08-0.46-0.22-0.57c-0.15-0.11-0.33-0.16-0.55-0.16c-0.12,0-0.25,0.02-0.38,0.07c-0.13,0.05-0.25,0.12-0.37,0.21
		c-0.11,0.09-0.21,0.2-0.28,0.34c-0.08,0.14-0.11,0.3-0.11,0.48v3.6h-1.33v-5.82h0.77l0.56,0.72c0.04-0.1,0.1-0.2,0.19-0.29
		c0.09-0.1,0.2-0.18,0.32-0.26c0.12-0.08,0.26-0.14,0.42-0.19c0.15-0.05,0.32-0.07,0.49-0.07c0.36,0,0.67,0.08,0.92,0.23
		c0.25,0.15,0.47,0.36,0.65,0.61c0.08-0.07,0.17-0.16,0.27-0.27c0.11-0.1,0.23-0.19,0.37-0.28c0.14-0.08,0.29-0.15,0.47-0.21
		c0.17-0.06,0.37-0.09,0.59-0.09c0.67,0,1.15,0.17,1.41,0.52c0.26,0.35,0.39,0.89,0.39,1.62V69.26z"/>
	<path class="st5" d="M24.49,68.17c0.1,0,0.22-0.01,0.34-0.03c0.12-0.02,0.23-0.06,0.33-0.12c0.1-0.06,0.18-0.14,0.25-0.24
		c0.06-0.1,0.1-0.23,0.1-0.39h1.33c0,0.33-0.06,0.62-0.18,0.87c-0.12,0.25-0.29,0.45-0.5,0.62c-0.21,0.16-0.46,0.29-0.74,0.37
		c-0.29,0.08-0.6,0.12-0.92,0.12c-0.73,0-1.31-0.17-1.74-0.52c-0.43-0.35-0.64-0.87-0.64-1.56v-1.82c0-0.71,0.22-1.25,0.64-1.6
		c0.43-0.35,1-0.52,1.71-0.52c0.35,0,0.68,0.04,0.98,0.13c0.3,0.09,0.55,0.22,0.76,0.39c0.21,0.18,0.37,0.4,0.49,0.66
		c0.12,0.26,0.17,0.58,0.17,0.94v1.22h-3.43v0.71c0,0.15,0.03,0.27,0.1,0.37c0.06,0.1,0.15,0.18,0.25,0.24
		c0.1,0.06,0.22,0.1,0.34,0.13C24.25,68.16,24.37,68.17,24.49,68.17 M23.45,65.59h2.1v-0.24c0-0.15-0.03-0.28-0.1-0.38
		c-0.07-0.1-0.15-0.18-0.26-0.25c-0.1-0.06-0.22-0.11-0.34-0.14c-0.12-0.03-0.25-0.05-0.37-0.05c-0.11,0-0.23,0.02-0.35,0.05
		c-0.12,0.03-0.24,0.08-0.33,0.14s-0.18,0.15-0.24,0.25c-0.06,0.1-0.1,0.23-0.1,0.38V65.59z"/>
	<path class="st5" d="M31.38,68.53c-0.04,0.09-0.1,0.19-0.19,0.29c-0.09,0.1-0.19,0.19-0.32,0.28c-0.13,0.08-0.27,0.15-0.43,0.2
		c-0.16,0.05-0.34,0.08-0.53,0.08c-0.72,0-1.23-0.17-1.52-0.53c-0.29-0.35-0.44-0.88-0.44-1.59v-1.82c0-0.35,0.03-0.66,0.1-0.92
		c0.07-0.26,0.18-0.48,0.33-0.65c0.15-0.17,0.36-0.3,0.6-0.38c0.25-0.08,0.56-0.12,0.92-0.12c0.16,0,0.32,0.03,0.48,0.08
		c0.16,0.05,0.31,0.12,0.44,0.2s0.25,0.17,0.34,0.27s0.17,0.19,0.2,0.28v-2.73h1.33v7.83h-0.77L31.38,68.53z M31.38,65.65
		c0-0.18-0.04-0.34-0.12-0.48c-0.08-0.14-0.18-0.26-0.3-0.35c-0.12-0.09-0.25-0.16-0.39-0.21c-0.14-0.05-0.27-0.07-0.39-0.07
		c-0.11,0-0.22,0.01-0.33,0.02c-0.11,0.02-0.2,0.05-0.29,0.1c-0.09,0.05-0.15,0.12-0.2,0.21c-0.05,0.09-0.08,0.21-0.08,0.35v2.24
		c0,0.15,0.03,0.27,0.08,0.36c0.05,0.09,0.11,0.16,0.2,0.21c0.08,0.05,0.18,0.09,0.28,0.11c0.11,0.02,0.22,0.03,0.34,0.03
		c0.12,0,0.25-0.02,0.39-0.07c0.14-0.04,0.27-0.11,0.39-0.21c0.12-0.09,0.22-0.21,0.3-0.35c0.08-0.14,0.12-0.3,0.12-0.48V65.65z"/>
	<path class="st5" d="M35.85,62.69h-1.39v-1.24h1.39V62.69z M35.84,69.26h-1.37v-5.82h1.37V69.26z"/>
	<path class="st5" d="M36.91,63.44h0.65l0.56-1.52h0.77v1.52h1.64v1.16h-1.64v3.08c0,0.32,0.16,0.49,0.49,0.49
		c0.11,0,0.27-0.02,0.49-0.05c0.21-0.03,0.48-0.09,0.8-0.18v1.16c-0.09,0.04-0.2,0.07-0.33,0.11c-0.13,0.03-0.26,0.06-0.39,0.08
		c-0.13,0.02-0.26,0.04-0.38,0.05c-0.12,0.01-0.23,0.02-0.31,0.02c-0.24,0-0.46-0.02-0.67-0.07c-0.2-0.05-0.38-0.13-0.53-0.25
		c-0.15-0.12-0.27-0.28-0.36-0.49c-0.09-0.2-0.13-0.46-0.13-0.77v-3.18h-0.65V63.44z"/>
	<path class="st5" d="M43.7,68.17c0.1,0,0.22-0.01,0.34-0.03c0.12-0.02,0.23-0.06,0.33-0.12c0.1-0.06,0.18-0.14,0.25-0.24
		c0.06-0.1,0.1-0.23,0.1-0.39h1.33c0,0.33-0.06,0.62-0.18,0.87c-0.12,0.25-0.28,0.45-0.5,0.62c-0.21,0.17-0.46,0.29-0.74,0.37
		c-0.29,0.08-0.59,0.12-0.92,0.12c-0.73,0-1.31-0.17-1.74-0.52c-0.43-0.35-0.64-0.87-0.64-1.56v-1.82c0-0.71,0.21-1.25,0.64-1.6
		c0.43-0.35,1-0.52,1.71-0.52c0.35,0,0.68,0.04,0.97,0.13c0.3,0.09,0.55,0.22,0.76,0.39c0.21,0.18,0.37,0.4,0.49,0.66
		c0.12,0.26,0.18,0.57,0.18,0.94v1.22h-3.43v0.71c0,0.15,0.03,0.27,0.1,0.37c0.06,0.1,0.15,0.18,0.25,0.24
		c0.1,0.06,0.21,0.1,0.34,0.13S43.58,68.17,43.7,68.17 M43.28,62.68h-1.38v-1.23h1.38V62.68z M42.65,65.59h2.1v-0.24
		c0-0.15-0.03-0.28-0.1-0.38c-0.07-0.1-0.15-0.18-0.26-0.25c-0.1-0.06-0.22-0.11-0.34-0.14s-0.25-0.05-0.37-0.05
		c-0.11,0-0.23,0.02-0.36,0.05s-0.24,0.08-0.33,0.14c-0.1,0.06-0.18,0.15-0.24,0.25c-0.06,0.1-0.1,0.23-0.1,0.38V65.59z
		 M45.55,62.68h-1.38v-1.23h1.38V62.68z"/>
</g>
</svg>
