<?xml version="1.0" encoding="UTF-8"?>
<svg id="Layer_1" data-name="Layer 1" xmlns="http://www.w3.org/2000/svg" xmlns:xlink="http://www.w3.org/1999/xlink" viewBox="0 0 813.6 1630.22">
  <defs>
    <style>
      .cls-1 {
        letter-spacing: -.05em;
      }

      .cls-1, .cls-2, .cls-3 {
        font-family: Bardhi, Bardhi;
      }

      .cls-2 {
        letter-spacing: -.03em;
      }

      .cls-4 {
        fill: #231f20;
        font-size: 60.79px;
      }

      .cls-3 {
        letter-spacing: -.01em;
      }

      .cls-5 {
        clip-path: url(#clippath);
      }

      .cls-6 {
        fill: none;
      }

      .cls-7 {
        fill: #293b8f;
      }

      .cls-8 {
        font-family: MyriadPro-Regular, 'Myriad Pro';
      }
    </style>
    <clipPath id="clippath">
      <rect class="cls-6" width="813.6" height="1630.22"/>
    </clipPath>
  </defs>
  <text class="cls-4" transform="translate(31.77 73.77)"><tspan class="cls-2" x="0" y="0">l</tspan><tspan class="cls-3" x="15.44" y="0">o</tspan><tspan class="cls-1" x="49.73" y="0">g</tspan><tspan class="cls-8" x="80.12" y="0">*</tspan></text>
  <g class="cls-5">
    <path class="cls-7" d="M28.13,90.69c-.04,.09-.1,.19-.19,.29-.09,.1-.19,.19-.32,.28s-.27,.15-.43,.2c-.16,.05-.34,.08-.53,.08-.72,0-1.23-.17-1.52-.53-.29-.35-.44-.88-.44-1.59v-1.82c0-.35,.03-.66,.1-.92,.07-.26,.18-.48,.33-.65,.15-.17,.36-.3,.6-.38,.25-.08,.56-.12,.92-.12,.16,0,.32,.03,.48,.08,.16,.05,.31,.12,.44,.2,.13,.08,.25,.17,.34,.27s.17,.19,.2,.28v-2.73h1.33v7.83h-.77l-.56-.74Zm0-2.88c0-.18-.04-.34-.12-.48-.08-.14-.18-.26-.31-.35s-.25-.16-.39-.21c-.14-.05-.27-.07-.39-.07-.11,0-.22,0-.33,.02-.11,.02-.2,.05-.29,.1-.09,.05-.16,.12-.2,.21-.05,.09-.07,.21-.07,.35v2.24c0,.15,.03,.27,.07,.36,.05,.09,.11,.16,.2,.21,.08,.05,.18,.09,.28,.11,.11,.02,.22,.03,.34,.03s.25-.02,.39-.07c.14-.04,.27-.11,.39-.21,.12-.09,.22-.21,.31-.35,.08-.14,.12-.3,.12-.48v-1.42Z"/>
    <path class="cls-7" d="M34.98,91.42l-.57-.76c-.04,.1-.11,.2-.21,.3-.1,.1-.22,.19-.36,.28-.13,.08-.29,.15-.46,.2-.17,.05-.34,.08-.51,.08-.32,0-.6-.04-.82-.11-.22-.07-.41-.19-.55-.35-.14-.16-.25-.37-.31-.63-.07-.26-.1-.56-.1-.92v-3.91h1.33v4c0,.29,.06,.49,.17,.58,.11,.09,.28,.14,.5,.14,.13,0,.27-.03,.42-.08,.15-.05,.29-.13,.42-.23,.13-.1,.24-.21,.33-.35,.09-.14,.13-.28,.13-.44v-3.62h1.34v5.82h-.76Z"/>
    <path class="cls-7" d="M45.31,91.42h-1.33v-3.95c0-.29-.06-.49-.17-.6-.11-.1-.28-.16-.5-.16-.12,0-.25,.02-.4,.07-.14,.05-.28,.12-.4,.21-.12,.09-.23,.21-.31,.35-.08,.14-.12,.3-.12,.48v3.59h-1.33v-3.97c0-.27-.08-.46-.22-.57-.15-.11-.33-.16-.55-.16-.12,0-.25,.02-.38,.07-.13,.05-.25,.12-.37,.21-.11,.09-.21,.2-.28,.34-.08,.14-.11,.3-.11,.48v3.6h-1.33v-5.82h.77l.56,.72c.04-.1,.1-.2,.19-.29,.09-.1,.2-.18,.32-.26,.12-.08,.26-.14,.42-.19,.15-.05,.32-.07,.49-.07,.36,0,.67,.08,.92,.23,.25,.15,.47,.36,.65,.61,.08-.07,.17-.16,.27-.27,.11-.1,.23-.19,.37-.28,.14-.08,.29-.15,.47-.21,.17-.06,.37-.09,.59-.09,.67,0,1.15,.17,1.41,.52,.26,.35,.39,.89,.39,1.62v3.78Z"/>
    <path class="cls-7" d="M49.19,90.33c.1,0,.22-.01,.34-.03,.12-.02,.23-.06,.33-.12,.1-.06,.18-.14,.25-.24,.06-.1,.1-.23,.1-.39h1.33c0,.33-.06,.62-.18,.87-.12,.25-.29,.45-.5,.62-.21,.16-.46,.29-.74,.37-.29,.08-.6,.12-.92,.12-.73,0-1.31-.17-1.74-.52-.43-.35-.64-.87-.64-1.56v-1.82c0-.71,.22-1.25,.64-1.6,.43-.35,1-.52,1.71-.52,.35,0,.68,.04,.98,.13,.3,.09,.55,.22,.76,.39,.21,.18,.37,.4,.49,.66,.12,.26,.17,.58,.17,.94v1.22h-3.43v.71c0,.15,.03,.27,.1,.37,.06,.1,.15,.18,.25,.24,.1,.06,.22,.1,.34,.13,.12,.03,.25,.04,.37,.04m-1.05-2.58h2.1v-.24c0-.15-.03-.28-.1-.38-.07-.1-.15-.18-.26-.25-.1-.06-.22-.11-.34-.14-.12-.03-.25-.05-.37-.05-.11,0-.23,.02-.35,.05-.12,.03-.24,.08-.33,.14s-.18,.15-.24,.25c-.06,.1-.1,.23-.1,.38v.24Z"/>
    <path class="cls-7" d="M56.08,90.69c-.04,.09-.1,.19-.19,.29-.09,.1-.19,.19-.32,.28-.13,.08-.27,.15-.43,.2-.16,.05-.34,.08-.53,.08-.72,0-1.23-.17-1.52-.53-.29-.35-.44-.88-.44-1.59v-1.82c0-.35,.03-.66,.1-.92,.07-.26,.18-.48,.33-.65,.15-.17,.36-.3,.6-.38,.25-.08,.56-.12,.92-.12,.16,0,.32,.03,.48,.08,.16,.05,.31,.12,.44,.2s.25,.17,.34,.27,.17,.19,.2,.28v-2.73h1.33v7.83h-.77l-.56-.74Zm0-2.88c0-.18-.04-.34-.12-.48-.08-.14-.18-.26-.3-.35-.12-.09-.25-.16-.39-.21-.14-.05-.27-.07-.39-.07-.11,0-.22,0-.33,.02-.11,.02-.2,.05-.29,.1-.09,.05-.15,.12-.2,.21-.05,.09-.08,.21-.08,.35v2.24c0,.15,.03,.27,.08,.36,.05,.09,.11,.16,.2,.21,.08,.05,.18,.09,.28,.11,.11,.02,.22,.03,.34,.03s.25-.02,.39-.07c.14-.04,.27-.11,.39-.21,.12-.09,.22-.21,.3-.35,.08-.14,.12-.3,.12-.48v-1.42Z"/>
    <path class="cls-7" d="M60.55,84.85h-1.39v-1.24h1.39v1.24Zm-.01,6.57h-1.37v-5.82h1.37v5.82Z"/>
    <path class="cls-7" d="M61.61,85.6h.65l.56-1.52h.77v1.52h1.64v1.16h-1.64v3.08c0,.32,.16,.49,.49,.49,.11,0,.27-.02,.49-.05,.21-.03,.48-.09,.8-.18v1.16c-.09,.04-.2,.07-.33,.11-.13,.03-.26,.06-.39,.08-.13,.02-.26,.04-.38,.05-.12,.01-.23,.02-.31,.02-.24,0-.46-.02-.67-.07-.2-.05-.38-.13-.53-.25-.15-.12-.27-.28-.36-.49-.09-.2-.13-.46-.13-.77v-3.18h-.65v-1.16Z"/>
    <path class="cls-7" d="M68.4,90.33c.1,0,.22-.01,.34-.03,.12-.02,.23-.06,.33-.12,.1-.06,.18-.14,.25-.24,.06-.1,.1-.23,.1-.39h1.33c0,.33-.06,.62-.18,.87-.12,.25-.28,.45-.5,.62-.21,.17-.46,.29-.74,.37-.29,.08-.59,.12-.92,.12-.73,0-1.31-.17-1.74-.52-.43-.35-.64-.87-.64-1.56v-1.82c0-.71,.21-1.25,.64-1.6,.43-.35,1-.52,1.71-.52,.35,0,.68,.04,.97,.13,.3,.09,.55,.22,.76,.39,.21,.18,.37,.4,.49,.66,.12,.26,.18,.57,.18,.94v1.22h-3.43v.71c0,.15,.03,.27,.1,.37,.06,.1,.15,.18,.25,.24,.1,.06,.21,.1,.34,.13s.25,.04,.37,.04m-.42-5.49h-1.38v-1.23h1.38v1.23Zm-.63,2.91h2.1v-.24c0-.15-.03-.28-.1-.38-.07-.1-.15-.18-.26-.25-.1-.06-.22-.11-.34-.14s-.25-.05-.37-.05-.23,.02-.36,.05-.24,.08-.33,.14c-.1,.06-.18,.15-.24,.25-.06,.1-.1,.23-.1,.38v.24Zm2.9-2.91h-1.38v-1.23h1.38v1.23Z"/>
    <path class="cls-7" d="M273.69,1566.7c-.1,.25-.28,.52-.52,.8-.24,.28-.54,.54-.89,.77-.35,.23-.75,.42-1.2,.56-.45,.15-.93,.22-1.45,.22-2,0-3.4-.49-4.21-1.45-.81-.97-1.22-2.44-1.22-4.42v-5.03c0-.98,.09-1.83,.28-2.56,.19-.73,.49-1.33,.92-1.81,.43-.48,.98-.83,1.67-1.06,.69-.23,1.54-.34,2.56-.34,.44,0,.88,.07,1.33,.22,.45,.14,.85,.33,1.22,.56,.36,.23,.68,.47,.95,.73,.27,.26,.46,.51,.56,.76v-7.56h3.68v21.67h-2.12l-1.56-2.06Zm0-7.96c0-.5-.11-.94-.34-1.33-.23-.39-.51-.71-.84-.97-.33-.26-.69-.45-1.08-.58-.39-.12-.74-.19-1.08-.19-.31,0-.61,.02-.9,.06-.29,.04-.56,.13-.8,.26-.24,.14-.43,.33-.56,.58-.14,.25-.2,.57-.2,.97v6.21c0,.42,.07,.75,.2,1,.13,.25,.32,.45,.55,.59,.23,.15,.49,.25,.78,.3,.29,.05,.6,.08,.94,.08s.69-.06,1.08-.19c.39-.12,.74-.32,1.08-.58,.33-.26,.61-.58,.84-.97,.23-.38,.34-.83,.34-1.33v-3.93Z"/>
    <path class="cls-7" d="M292.65,1568.73l-1.58-2.09c-.11,.27-.3,.55-.58,.83-.28,.28-.61,.54-.98,.76-.38,.23-.8,.42-1.26,.56-.47,.15-.94,.22-1.42,.22-.89,0-1.65-.1-2.28-.3-.62-.2-1.13-.52-1.53-.97-.4-.45-.68-1.03-.86-1.73-.18-.71-.27-1.56-.27-2.56v-10.83h3.69v11.08c0,.81,.15,1.35,.47,1.61,.31,.26,.77,.39,1.37,.39,.35,0,.74-.08,1.16-.23,.42-.16,.8-.37,1.17-.64,.36-.27,.67-.59,.92-.97,.25-.38,.37-.78,.37-1.22v-10.02h3.71l-.03,16.11h-2.08Z"/>
    <path class="cls-7" d="M321.27,1568.73h-3.68v-10.93c0-.81-.16-1.36-.47-1.65-.32-.29-.78-.44-1.38-.44-.34,0-.7,.07-1.1,.2-.4,.13-.77,.33-1.11,.59-.35,.26-.63,.58-.86,.97-.23,.39-.35,.83-.35,1.33v9.93h-3.68v-10.99c0-.75-.2-1.28-.61-1.58-.41-.3-.91-.45-1.52-.45-.33,0-.68,.07-1.05,.2-.36,.13-.7,.33-1.01,.58-.31,.25-.57,.57-.78,.95-.21,.39-.31,.83-.31,1.33v9.96h-3.68v-16.11h2.12l1.56,2c.1-.27,.28-.54,.53-.81,.25-.27,.55-.51,.89-.73,.34-.22,.73-.4,1.15-.53,.43-.14,.88-.2,1.36-.2,1,0,1.85,.21,2.54,.64,.7,.43,1.29,1,1.79,1.7,.21-.21,.46-.45,.75-.73,.29-.28,.63-.53,1.01-.76,.38-.23,.82-.43,1.29-.59,.48-.17,1.02-.25,1.62-.25,1.87,0,3.17,.48,3.9,1.45,.73,.97,1.09,2.46,1.09,4.48v10.46Z"/>
    <path class="cls-7" d="M332.01,1565.7c.29,0,.6-.03,.94-.09,.33-.06,.64-.17,.92-.33,.28-.16,.51-.37,.69-.66,.18-.28,.27-.64,.27-1.08h3.68c0,.92-.17,1.72-.5,2.4-.33,.69-.79,1.26-1.37,1.72-.58,.46-1.27,.8-2.06,1.01-.79,.22-1.64,.33-2.56,.33-2.02,0-3.62-.48-4.81-1.45-1.19-.97-1.78-2.41-1.78-4.32v-5.03c0-1.98,.59-3.45,1.78-4.42,1.18-.97,2.77-1.45,4.74-1.45,.98,0,1.88,.12,2.7,.36,.82,.24,1.52,.6,2.11,1.09,.58,.49,1.04,1.1,1.36,1.83,.32,.73,.48,1.59,.48,2.59v3.37h-9.49v1.97c0,.42,.09,.76,.26,1.03,.18,.27,.41,.49,.69,.66,.28,.17,.59,.29,.94,.36,.34,.07,.68,.11,1.01,.11m-2.9-7.15h5.81v-.65c0-.42-.09-.77-.28-1.05-.19-.28-.43-.51-.72-.69-.29-.17-.61-.31-.95-.39-.34-.08-.68-.12-1.01-.12-.31,0-.64,.04-.98,.12-.34,.08-.65,.21-.92,.39-.27,.18-.5,.41-.67,.69-.18,.28-.26,.63-.26,1.05v.65Z"/>
    <path class="cls-7" d="M351.08,1566.7c-.1,.25-.28,.52-.52,.8-.24,.28-.54,.54-.89,.77-.35,.23-.76,.42-1.2,.56-.45,.15-.93,.22-1.45,.22-2,0-3.4-.49-4.21-1.45-.81-.97-1.22-2.44-1.22-4.42v-5.03c0-.98,.09-1.83,.28-2.56,.19-.73,.49-1.33,.92-1.81,.43-.48,.98-.83,1.67-1.06,.69-.23,1.54-.34,2.56-.34,.44,0,.88,.07,1.33,.22,.45,.14,.85,.33,1.22,.56,.36,.23,.68,.47,.95,.73,.27,.26,.46,.51,.56,.76v-7.56h3.68v21.67h-2.12l-1.56-2.06Zm0-7.96c0-.5-.11-.94-.34-1.33-.23-.39-.51-.71-.84-.97-.33-.26-.69-.45-1.08-.58-.39-.12-.74-.19-1.08-.19-.31,0-.61,.02-.9,.06-.29,.04-.56,.13-.8,.26-.24,.14-.43,.33-.56,.58-.14,.25-.2,.57-.2,.97v6.21c0,.42,.07,.75,.2,1,.13,.25,.32,.45,.55,.59,.23,.15,.49,.25,.78,.3,.29,.05,.6,.08,.94,.08s.69-.06,1.08-.19c.38-.12,.74-.32,1.08-.58,.33-.26,.61-.58,.84-.97,.23-.38,.34-.83,.34-1.33v-3.93Z"/>
    <path class="cls-7" d="M363.44,1550.53h-3.84v-3.43h3.84v3.43Zm-.03,18.2h-3.78v-16.11h3.78v16.11Z"/>
    <path class="cls-7" d="M366.38,1552.62h1.81l1.56-4.21h2.12v4.21h4.53v3.22h-4.53v8.52c0,.9,.45,1.35,1.34,1.35,.31,0,.76-.05,1.34-.14,.58-.09,1.32-.25,2.22-.48v3.22c-.25,.1-.56,.2-.92,.29-.36,.09-.73,.17-1.09,.23-.36,.06-.72,.11-1.06,.14-.34,.03-.63,.05-.86,.05-.67,0-1.28-.07-1.84-.2-.56-.13-1.05-.37-1.47-.7s-.74-.78-.98-1.34c-.24-.56-.36-1.27-.36-2.12v-8.8h-1.81v-3.22Z"/>
    <path class="cls-7" d="M385.17,1565.7c.29,0,.6-.03,.94-.09,.33-.06,.64-.17,.92-.33,.28-.16,.51-.37,.69-.65,.18-.28,.27-.64,.27-1.08h3.68c0,.92-.17,1.72-.5,2.4-.33,.69-.79,1.26-1.37,1.72-.58,.46-1.27,.8-2.06,1.01-.79,.22-1.64,.33-2.56,.33-2.02,0-3.62-.49-4.81-1.45-1.19-.97-1.78-2.41-1.78-4.32v-5.03c0-1.98,.59-3.45,1.78-4.42,1.18-.97,2.77-1.45,4.74-1.45,.98,0,1.88,.12,2.7,.36,.82,.24,1.53,.6,2.11,1.09,.58,.49,1.04,1.1,1.36,1.83,.32,.73,.48,1.59,.48,2.59v3.37h-9.49v1.97c0,.42,.09,.76,.26,1.03,.18,.27,.41,.49,.69,.65,.28,.17,.59,.29,.94,.36,.34,.07,.68,.11,1.01,.11m-1.15-15.2h-3.81v-3.4h3.81v3.4Zm-1.75,8.06h5.81v-.66c0-.42-.09-.76-.28-1.05-.19-.28-.43-.51-.72-.69-.29-.18-.61-.31-.95-.39-.34-.08-.68-.12-1.01-.12-.31,0-.64,.04-.98,.12s-.65,.21-.92,.39c-.27,.18-.49,.41-.67,.69-.18,.28-.26,.63-.26,1.05v.66Zm8.02-8.06h-3.81v-3.4h3.81v3.4Z"/>
  </g>
</svg>