<svg id="Layer_1" data-name="Layer 1" xmlns="http://www.w3.org/2000/svg" xmlns:xlink="http://www.w3.org/1999/xlink" viewBox="0 0 266.59 73.13"><defs><style>.cls-1{fill:none;}.cls-2{font-size:60.79px;fill:#231f20;font-family:Bardhi;}.cls-3{letter-spacing:-0.03em;}.cls-4{letter-spacing:-0.01em;}.cls-5{letter-spacing:-0.05em;}.cls-6{font-family:MyriadPro-Regular, Myriad Pro;}.cls-7{clip-path:url(#clip-path);}.cls-8{fill:#293b8f;}</style><clipPath id="clip-path" transform="translate(-419.46 -24.64)"><rect class="cls-1" x="615.28" width="813.6" height="1630.22"/></clipPath></defs><text class="cls-2" transform="translate(0 51.61)"><tspan class="cls-3">l</tspan><tspan class="cls-4" x="15.44" y="0">o</tspan><tspan class="cls-5" x="49.73" y="0">g</tspan><tspan class="cls-6" x="80.12" y="0">*</tspan></text><g class="cls-7"><path class="cls-8" d="M643.4,90.69a1.21,1.21,0,0,1-.18.29,1.69,1.69,0,0,1-.32.27,2.56,2.56,0,0,1-.44.21,1.72,1.72,0,0,1-.52.07,1.89,1.89,0,0,1-1.52-.52,2.41,2.41,0,0,1-.45-1.6V87.6a3.71,3.71,0,0,1,.11-.93,1.48,1.48,0,0,1,.33-.65,1.32,1.32,0,0,1,.6-.38,2.78,2.78,0,0,1,.93-.13,1.66,1.66,0,0,1,.48.08,2.19,2.19,0,0,1,.44.2,2.38,2.38,0,0,1,.34.27.75.75,0,0,1,.2.27V83.61h1.33v7.82H644Zm0-2.88a1,1,0,0,0-.12-.48A1.3,1.3,0,0,0,643,87a1.27,1.27,0,0,0-.38-.2,1.15,1.15,0,0,0-.39-.07,1.72,1.72,0,0,0-.33,0,.91.91,0,0,0-.29.1.48.48,0,0,0-.2.2.75.75,0,0,0-.07.35v2.25a.74.74,0,0,0,.07.36.51.51,0,0,0,.2.21.63.63,0,0,0,.28.11,1.79,1.79,0,0,0,.34,0,1.15,1.15,0,0,0,.39-.07,1.11,1.11,0,0,0,.38-.21,1.17,1.17,0,0,0,.31-.35,1,1,0,0,0,.12-.48Z" transform="translate(-419.46 -24.64)"/><path class="cls-8" d="M650.25,91.42l-.57-.76a.75.75,0,0,1-.2.3,1.65,1.65,0,0,1-.36.28,2.13,2.13,0,0,1-.46.2,1.51,1.51,0,0,1-.51.08,2.47,2.47,0,0,1-.82-.11,1.23,1.23,0,0,1-.56-.34,1.69,1.69,0,0,1-.31-.63,4.09,4.09,0,0,1-.09-.92V85.6h1.33v4a.58.58,0,0,0,.66.72,1.14,1.14,0,0,0,.42-.09,1.44,1.44,0,0,0,.42-.23,1.26,1.26,0,0,0,.34-.35.76.76,0,0,0,.13-.44V85.6H651v5.82Z" transform="translate(-419.46 -24.64)"/><path class="cls-8" d="M660.59,91.42h-1.33v-4a.8.8,0,0,0-.17-.59.7.7,0,0,0-.5-.16,1.25,1.25,0,0,0-.4.07,1.31,1.31,0,0,0-.4.22,1,1,0,0,0-.31.35.81.81,0,0,0-.13.47v3.59H656v-4a.66.66,0,0,0-.22-.57.9.9,0,0,0-.55-.16,1,1,0,0,0-.37.07,1.36,1.36,0,0,0-.37.21,1,1,0,0,0-.28.34,1,1,0,0,0-.11.48v3.6h-1.34V85.6h.77l.56.72a1.35,1.35,0,0,1,.52-.55,1.74,1.74,0,0,1,.41-.2,1.61,1.61,0,0,1,.49-.07,1.77,1.77,0,0,1,.92.23,2.25,2.25,0,0,1,.65.62,3.42,3.42,0,0,1,.27-.27,2.64,2.64,0,0,1,.36-.28,2.9,2.9,0,0,1,.47-.21,1.78,1.78,0,0,1,.59-.09,1.64,1.64,0,0,1,1.4.52,2.65,2.65,0,0,1,.4,1.62Z" transform="translate(-419.46 -24.64)"/><path class="cls-8" d="M664.47,90.33a1.42,1.42,0,0,0,.34,0,1.17,1.17,0,0,0,.33-.11.82.82,0,0,0,.25-.24.75.75,0,0,0,.09-.39h1.33a2,2,0,0,1-.18.87,1.75,1.75,0,0,1-.49.62,2,2,0,0,1-.75.36,3.36,3.36,0,0,1-.92.12,2.67,2.67,0,0,1-1.74-.52,1.89,1.89,0,0,1-.64-1.56V87.62a2,2,0,0,1,.64-1.6,2.69,2.69,0,0,1,1.72-.52,3.35,3.35,0,0,1,1,.13,2.18,2.18,0,0,1,.76.39,1.78,1.78,0,0,1,.49.66,2.28,2.28,0,0,1,.18.94v1.22h-3.43v.71a.62.62,0,0,0,.1.37.69.69,0,0,0,.24.24,1.26,1.26,0,0,0,.34.13,2.46,2.46,0,0,0,.37,0m-1.05-2.59h2.1v-.23a.74.74,0,0,0-.1-.38,1,1,0,0,0-.26-.25,1.35,1.35,0,0,0-.35-.14,1.64,1.64,0,0,0-.72,0,1.22,1.22,0,0,0-.33.14.82.82,0,0,0-.24.25.65.65,0,0,0-.1.38Z" transform="translate(-419.46 -24.64)"/><path class="cls-8" d="M671.36,90.69a1.29,1.29,0,0,1-.19.29,1.24,1.24,0,0,1-.32.27,2.46,2.46,0,0,1-.43.21,1.83,1.83,0,0,1-.53.07,1.89,1.89,0,0,1-1.52-.52,2.46,2.46,0,0,1-.44-1.6V87.6a3.73,3.73,0,0,1,.1-.93,1.6,1.6,0,0,1,.33-.65,1.41,1.41,0,0,1,.61-.38,2.72,2.72,0,0,1,.92-.13,1.61,1.61,0,0,1,.48.08,2,2,0,0,1,.44.2,2.48,2.48,0,0,1,.35.27,1.1,1.1,0,0,1,.2.27V83.61h1.33v7.82h-.77Zm0-2.88a.86.86,0,0,0-.13-.48,1.27,1.27,0,0,0-.3-.35,1.2,1.2,0,0,0-.39-.2,1.15,1.15,0,0,0-.39-.07,1.67,1.67,0,0,0-.32,0,.83.83,0,0,0-.29.1.39.39,0,0,0-.2.2.75.75,0,0,0-.08.35v2.25a.74.74,0,0,0,.08.36.48.48,0,0,0,.19.21.69.69,0,0,0,.28.11,1.87,1.87,0,0,0,.34,0,1.15,1.15,0,0,0,.39-.07,1.06,1.06,0,0,0,.39-.21,1.14,1.14,0,0,0,.3-.35.86.86,0,0,0,.13-.48Z" transform="translate(-419.46 -24.64)"/><path class="cls-8" d="M675.82,84.85h-1.38V83.61h1.38Zm0,6.57h-1.36V85.6h1.36Z" transform="translate(-419.46 -24.64)"/><path class="cls-8" d="M676.88,85.6h.66l.56-1.52h.77V85.6h1.63v1.16h-1.63v3.08a.43.43,0,0,0,.48.49,3.83,3.83,0,0,0,.49,0l.8-.18v1.17l-.33.1-.4.09-.38.05h-.31a2.87,2.87,0,0,1-.67-.07,1.37,1.37,0,0,1-.53-.25,1.19,1.19,0,0,1-.35-.49,1.9,1.9,0,0,1-.13-.77V86.76h-.66Z" transform="translate(-419.46 -24.64)"/><path class="cls-8" d="M683.67,90.33a1.37,1.37,0,0,0,.34,0,.93.93,0,0,0,.33-.12.61.61,0,0,0,.25-.23.75.75,0,0,0,.1-.39H686a2,2,0,0,1-.18.87,1.88,1.88,0,0,1-.5.62,2.22,2.22,0,0,1-.74.36,3.48,3.48,0,0,1-.93.12,2.63,2.63,0,0,1-1.73-.52,1.9,1.9,0,0,1-.65-1.56V87.62a2,2,0,0,1,.65-1.6,2.61,2.61,0,0,1,1.71-.52,3.42,3.42,0,0,1,1,.13,2.28,2.28,0,0,1,.76.39,1.9,1.9,0,0,1,.49.66,2.46,2.46,0,0,1,.17.94v1.22h-3.43v.71a.7.7,0,0,0,.1.37.72.72,0,0,0,.25.24,1.15,1.15,0,0,0,.34.13,2.2,2.2,0,0,0,.36,0m-.41-5.5h-1.38V83.61h1.38Zm-.64,2.91h2.1v-.23a.65.65,0,0,0-.1-.38.89.89,0,0,0-.26-.25,1.28,1.28,0,0,0-.34-.14,1.61,1.61,0,0,0-.37,0,1.59,1.59,0,0,0-.36,0,1.22,1.22,0,0,0-.33.14.82.82,0,0,0-.24.25.74.74,0,0,0-.1.38Zm2.9-2.91h-1.37V83.61h1.37Z" transform="translate(-419.46 -24.64)"/></g></svg>