<?xml version="1.0" encoding="utf-8"?>
<!-- Generator: Adobe Illustrator 26.0.3, SVG Export Plug-In . SVG Version: 6.00 Build 0)  -->
<svg version="1.1" id="Layer_1" xmlns="http://www.w3.org/2000/svg" xmlns:xlink="http://www.w3.org/1999/xlink" x="0px" y="0px"
	 viewBox="0 0 205.6 35.37" style="enable-background:new 0 0 205.6 35.37;" xml:space="preserve">
<style type="text/css">
	.st0{fill:#293B8F;}
</style>
<g>
	<path class="st0" d="M15.3,31.6c-0.17,0.4-0.45,0.83-0.83,1.28c-0.39,0.45-0.86,0.86-1.43,1.23c-0.57,0.37-1.21,0.67-1.94,0.9
		s-1.5,0.35-2.34,0.35c-3.22,0-5.48-0.78-6.79-2.34C0.65,31.48,0,29.1,0,25.92v-8.1c0-1.58,0.15-2.95,0.45-4.13
		c0.3-1.17,0.8-2.15,1.49-2.92C2.62,10,3.52,9.43,4.63,9.06C5.74,8.69,7.11,8.5,8.76,8.5c0.7,0,1.42,0.12,2.14,0.35
		c0.72,0.23,1.37,0.54,1.96,0.9c0.59,0.37,1.1,0.76,1.53,1.18c0.44,0.42,0.74,0.83,0.91,1.23V0h5.94v34.92h-3.42L15.3,31.6z
		 M15.3,18.77c0-0.81-0.19-1.52-0.56-2.14c-0.37-0.62-0.82-1.14-1.36-1.56c-0.54-0.42-1.12-0.73-1.74-0.93
		c-0.62-0.2-1.2-0.3-1.74-0.3c-0.5,0-0.99,0.04-1.46,0.1c-0.47,0.07-0.9,0.21-1.28,0.43c-0.39,0.22-0.69,0.53-0.9,0.93
		c-0.22,0.4-0.33,0.92-0.33,1.56v10.01c0,0.67,0.11,1.21,0.33,1.61c0.22,0.4,0.51,0.72,0.88,0.96c0.37,0.23,0.79,0.39,1.26,0.48
		c0.47,0.08,0.97,0.13,1.51,0.13c0.54,0,1.11-0.1,1.74-0.3c0.62-0.2,1.2-0.51,1.74-0.93c0.54-0.42,0.99-0.94,1.36-1.56
		c0.37-0.62,0.56-1.33,0.56-2.14V18.77z"/>
	<path class="st0" d="M45.86,34.87l-2.54-3.37c-0.17,0.44-0.48,0.88-0.93,1.33c-0.45,0.45-0.98,0.86-1.58,1.23
		c-0.6,0.37-1.28,0.67-2.04,0.91c-0.75,0.23-1.52,0.35-2.29,0.35c-1.44,0-2.67-0.16-3.67-0.48c-1.01-0.32-1.83-0.84-2.47-1.56
		c-0.64-0.72-1.1-1.65-1.38-2.79c-0.29-1.14-0.43-2.52-0.43-4.13V8.91h5.94v17.86c0,1.31,0.25,2.17,0.75,2.59
		c0.5,0.42,1.24,0.63,2.22,0.63c0.57,0,1.19-0.12,1.86-0.38c0.67-0.25,1.3-0.6,1.89-1.03s1.08-0.96,1.49-1.56
		c0.4-0.6,0.6-1.26,0.6-1.96V8.91h5.99l-0.05,25.96H45.86z"/>
	<path class="st0" d="M91.98,34.87h-5.94V17.26c0-1.31-0.25-2.2-0.76-2.67c-0.51-0.47-1.25-0.7-2.23-0.7
		c-0.54,0-1.13,0.11-1.77,0.33c-0.64,0.22-1.24,0.54-1.8,0.96c-0.56,0.42-1.02,0.94-1.39,1.56c-0.37,0.62-0.56,1.33-0.56,2.14v16
		H71.6V17.16c0-1.21-0.33-2.05-0.98-2.54c-0.65-0.48-1.47-0.73-2.44-0.73c-0.54,0-1.1,0.11-1.68,0.33
		c-0.59,0.22-1.13,0.53-1.64,0.93c-0.5,0.4-0.92,0.92-1.26,1.54c-0.34,0.62-0.5,1.33-0.5,2.14v16.05h-5.94V8.91h3.42l2.51,3.22
		c0.17-0.44,0.45-0.87,0.85-1.31c0.4-0.43,0.88-0.83,1.43-1.18c0.55-0.35,1.17-0.64,1.86-0.86c0.69-0.22,1.41-0.33,2.18-0.33
		c1.61,0,2.97,0.34,4.1,1.03c1.12,0.69,2.08,1.6,2.89,2.74c0.33-0.33,0.74-0.73,1.21-1.18c0.47-0.45,1.01-0.86,1.63-1.23
		c0.62-0.37,1.31-0.69,2.09-0.95c0.77-0.27,1.64-0.4,2.61-0.4c3.01,0,5.11,0.78,6.28,2.34c1.17,1.56,1.76,3.97,1.76,7.22V34.87z"/>
	<path class="st0" d="M109.29,29.99c0.47,0,0.97-0.05,1.51-0.15c0.54-0.1,1.03-0.28,1.49-0.53c0.45-0.25,0.82-0.6,1.11-1.06
		c0.28-0.45,0.43-1.03,0.43-1.74h5.94c0,1.48-0.27,2.77-0.81,3.88c-0.54,1.11-1.28,2.03-2.21,2.77c-0.94,0.74-2.05,1.28-3.32,1.64
		s-2.65,0.53-4.13,0.53c-3.25,0-5.84-0.78-7.75-2.34c-1.91-1.56-2.87-3.88-2.87-6.97v-8.1c0-3.19,0.96-5.56,2.87-7.12
		c1.91-1.56,4.46-2.34,7.65-2.34c1.58,0,3.03,0.19,4.35,0.58c1.32,0.39,2.46,0.97,3.4,1.76c0.94,0.79,1.67,1.77,2.19,2.94
		c0.52,1.17,0.78,2.57,0.78,4.18v5.43h-15.3v3.17c0,0.67,0.14,1.22,0.43,1.66c0.28,0.43,0.65,0.79,1.11,1.06s0.96,0.46,1.51,0.58
		C108.21,29.93,108.76,29.99,109.29,29.99 M104.61,18.47h9.36v-1.06c0-0.67-0.15-1.23-0.45-1.68s-0.69-0.82-1.16-1.11
		c-0.47-0.28-0.98-0.49-1.53-0.63c-0.55-0.13-1.1-0.2-1.64-0.2c-0.5,0-1.03,0.07-1.58,0.2c-0.55,0.13-1.05,0.35-1.48,0.63
		c-0.44,0.29-0.8,0.65-1.08,1.11c-0.28,0.45-0.43,1.01-0.43,1.68V18.47z"/>
	<path class="st0" d="M140.04,31.6c-0.17,0.4-0.44,0.83-0.83,1.28c-0.39,0.45-0.86,0.86-1.43,1.23c-0.57,0.37-1.22,0.67-1.94,0.9
		c-0.72,0.23-1.5,0.35-2.34,0.35c-3.22,0-5.48-0.78-6.79-2.34c-1.31-1.56-1.96-3.93-1.96-7.12v-8.1c0-1.58,0.15-2.95,0.45-4.13
		c0.3-1.17,0.8-2.15,1.49-2.92c0.69-0.77,1.59-1.34,2.69-1.71c1.11-0.37,2.48-0.56,4.13-0.56c0.7,0,1.42,0.12,2.14,0.35
		c0.72,0.23,1.38,0.54,1.96,0.9c0.58,0.37,1.1,0.76,1.53,1.18c0.44,0.42,0.74,0.83,0.9,1.23V0h5.94v34.92h-3.42L140.04,31.6z
		 M140.04,18.77c0-0.81-0.18-1.52-0.55-2.14c-0.37-0.62-0.82-1.14-1.36-1.56c-0.54-0.42-1.12-0.73-1.74-0.93
		c-0.62-0.2-1.2-0.3-1.74-0.3c-0.5,0-0.99,0.04-1.46,0.1c-0.47,0.07-0.9,0.21-1.28,0.43c-0.38,0.22-0.69,0.53-0.9,0.93
		c-0.22,0.4-0.33,0.92-0.33,1.56v10.01c0,0.67,0.11,1.21,0.33,1.61c0.22,0.4,0.51,0.72,0.88,0.96c0.37,0.23,0.79,0.39,1.26,0.48
		c0.47,0.08,0.97,0.13,1.51,0.13c0.54,0,1.11-0.1,1.74-0.3c0.62-0.2,1.2-0.51,1.74-0.93c0.54-0.42,0.99-0.94,1.36-1.56
		c0.37-0.62,0.55-1.33,0.55-2.14V18.77z"/>
	<path class="st0" d="M159.96,5.54h-6.19V0h6.19V5.54z M159.91,34.87h-6.09V8.91h6.09V34.87z"/>
	<path class="st0" d="M164.69,8.91h2.92l2.52-6.79h3.42v6.79h7.3v5.18h-7.3v13.73c0,1.45,0.72,2.17,2.16,2.17
		c0.5,0,1.22-0.07,2.16-0.23c0.94-0.15,2.13-0.41,3.57-0.78v5.19c-0.4,0.17-0.9,0.32-1.49,0.47c-0.59,0.15-1.17,0.27-1.76,0.38
		c-0.59,0.1-1.16,0.17-1.71,0.22c-0.55,0.05-1.01,0.07-1.38,0.07c-1.07,0-2.06-0.11-2.97-0.33c-0.91-0.22-1.69-0.6-2.37-1.13
		c-0.67-0.54-1.2-1.26-1.58-2.16c-0.39-0.91-0.58-2.05-0.58-3.42V14.09h-2.92V8.91z"/>
	<path class="st0" d="M194.98,29.99c0.47,0,0.97-0.05,1.51-0.15c0.54-0.1,1.03-0.28,1.48-0.53c0.45-0.25,0.82-0.6,1.11-1.06
		c0.28-0.45,0.43-1.03,0.43-1.74h5.94c0,1.48-0.27,2.77-0.81,3.88c-0.54,1.11-1.27,2.03-2.21,2.77c-0.94,0.74-2.05,1.28-3.32,1.64
		c-1.27,0.35-2.65,0.53-4.13,0.53c-3.25,0-5.84-0.78-7.75-2.34c-1.91-1.56-2.87-3.88-2.87-6.97v-8.1c0-3.19,0.96-5.56,2.87-7.12
		c1.91-1.56,4.46-2.34,7.65-2.34c1.58,0,3.03,0.19,4.35,0.58c1.33,0.39,2.46,0.97,3.4,1.76c0.94,0.79,1.67,1.77,2.19,2.94
		c0.52,1.17,0.78,2.57,0.78,4.18v5.43h-15.3v3.17c0,0.67,0.14,1.23,0.43,1.66s0.66,0.79,1.11,1.06c0.45,0.27,0.96,0.46,1.51,0.58
		C193.9,29.93,194.45,29.99,194.98,29.99 M193.12,5.49h-6.14V0h6.14V5.49z M190.31,18.47h9.36v-1.06c0-0.67-0.15-1.23-0.45-1.68
		c-0.3-0.45-0.69-0.82-1.16-1.11c-0.47-0.28-0.98-0.49-1.54-0.63c-0.55-0.13-1.1-0.2-1.63-0.2c-0.5,0-1.03,0.07-1.59,0.2
		c-0.55,0.13-1.05,0.34-1.49,0.63c-0.44,0.29-0.8,0.65-1.08,1.11s-0.43,1.02-0.43,1.68V18.47z M203.24,5.49h-6.14V0h6.14V5.49z"/>
</g>
</svg>
