<?xml version="1.0" encoding="utf-8"?>
<!-- Generator: Adobe Illustrator 26.0.3, SVG Export Plug-In . SVG Version: 6.00 Build 0)  -->
<svg version="1.1" id="Layer_1" xmlns="http://www.w3.org/2000/svg" xmlns:xlink="http://www.w3.org/1999/xlink" x="0px" y="0px"
	 viewBox="0 0 110.6 71.02" style="enable-background:new 0 0 110.6 71.02;" xml:space="preserve">
<style type="text/css">
	.st0{fill:#231F20;}
	.st1{fill:#293B8F;}
</style>
<g>
	<g>
		<path class="st0" d="M18.75,46.69l3.89,0.97v1.95H9.02v-1.95l3.89-0.97V4.86L9.99,3.89V1.95L18.75,0V46.69z"/>
		<path class="st0" d="M40.02,19.45c2.19,0,4.23,0.41,6.11,1.22c1.88,0.81,3.53,1.92,4.92,3.31c1.4,1.4,2.5,3.04,3.31,4.92
			c0.81,1.88,1.22,3.92,1.22,6.11c0,2.19-0.41,4.24-1.22,6.14c-0.81,1.91-1.92,3.56-3.31,4.95c-1.4,1.4-3.04,2.49-4.92,3.28
			c-1.88,0.79-3.92,1.19-6.11,1.19s-4.24-0.4-6.14-1.19c-1.91-0.79-3.56-1.88-4.96-3.28c-1.4-1.4-2.49-3.05-3.28-4.95
			c-0.79-1.9-1.19-3.95-1.19-6.14c0-2.19,0.4-4.22,1.19-6.11s1.88-3.53,3.28-4.92c1.4-1.4,3.05-2.5,4.96-3.31
			C35.79,19.86,37.83,19.45,40.02,19.45z M40.99,48.63c0.97,0,1.98-0.25,3.01-0.76c1.03-0.51,1.98-1.31,2.83-2.4
			c0.85-1.09,1.55-2.5,2.1-4.23c0.55-1.72,0.82-3.8,0.82-6.23c0-1.95-0.28-3.75-0.85-5.41c-0.57-1.66-1.34-3.1-2.31-4.32
			s-2.11-2.17-3.4-2.86c-1.3-0.69-2.67-1.03-4.13-1.03c-0.97,0-1.98,0.25-3.01,0.76c-1.03,0.51-1.98,1.31-2.83,2.4
			c-0.85,1.09-1.55,2.5-2.1,4.23c-0.55,1.72-0.82,3.8-0.82,6.23c0,1.95,0.28,3.75,0.85,5.41c0.57,1.66,1.34,3.1,2.31,4.32
			s2.11,2.17,3.4,2.86C38.16,48.29,39.54,48.63,40.99,48.63z"/>
		<path class="st0" d="M63.73,45.72c0,0.93,0.42,1.59,1.28,1.98c0.85,0.39,1.96,0.63,3.31,0.73c1.36,0.1,2.88,0.12,4.56,0.06
			s3.37-0.06,5.08,0s3.32,0.25,4.86,0.58c1.54,0.33,2.83,0.91,3.86,1.76c1.03,0.85,1.74,2.04,2.13,3.56
			c0.38,1.52,0.25,3.5-0.39,5.93c-0.61,2.27-1.78,4.18-3.53,5.75c-1.74,1.56-3.78,2.75-6.11,3.59c-2.33,0.83-4.81,1.29-7.45,1.37
			c-2.63,0.08-5.17-0.24-7.6-0.97c-1.62-0.65-2.86-1.47-3.71-2.46c-0.85-0.99-1.4-2.05-1.64-3.16c-0.24-1.12-0.22-2.26,0.06-3.43
			c0.28-1.18,0.76-2.27,1.43-3.28c0.67-1.01,1.47-1.91,2.4-2.67c0.93-0.77,1.95-1.32,3.04-1.64c-0.89-0.08-1.73-0.23-2.52-0.46
			c-0.79-0.22-1.47-0.56-2.04-1c-0.57-0.45-1.02-1.01-1.37-1.7c-0.34-0.69-0.52-1.54-0.52-2.55c0-0.97,0.21-1.82,0.64-2.55
			s0.94-1.35,1.55-1.85c0.61-0.51,1.25-0.91,1.91-1.22c0.67-0.3,1.25-0.52,1.73-0.64c-0.97-0.37-1.82-0.9-2.55-1.61
			c-0.73-0.71-1.34-1.52-1.82-2.43s-0.85-1.9-1.09-2.98c-0.24-1.07-0.36-2.16-0.36-3.25c0-1.74,0.33-3.33,1-4.77
			c0.67-1.44,1.58-2.67,2.74-3.71c1.16-1.03,2.5-1.82,4.04-2.37c1.54-0.55,3.16-0.82,4.86-0.82c1.78,0,3.46,0.32,5.05,0.97h11.31
			v1.95l-0.97,0.97h-5.84c0.97,1.05,1.73,2.23,2.28,3.53c0.55,1.3,0.82,2.72,0.82,4.26c0,1.7-0.34,3.27-1.03,4.71
			c-0.69,1.44-1.61,2.67-2.77,3.71c-1.15,1.03-2.49,1.83-4.01,2.4c-1.52,0.57-3.13,0.85-4.83,0.85c-0.77,0-1.52-0.02-2.25-0.06
			c-0.73-0.04-1.42-0.16-2.07-0.36c-0.73,0.12-1.31,0.3-1.73,0.55s-0.82,0.59-1.19,1.03C63.91,44.4,63.73,44.99,63.73,45.72z
			 M82.52,62.13c0.53-1.34,0.73-2.47,0.61-3.4C83,57.79,82.64,57,82.03,56.35c-0.61-0.65-1.38-1.18-2.31-1.58
			c-0.93-0.41-1.95-0.71-3.04-0.91c-2.51-0.49-5.57-0.61-9.18-0.36c-0.53,0.4-1.07,0.97-1.64,1.7s-1.05,1.55-1.46,2.46
			s-0.66,1.87-0.76,2.89c-0.1,1.01,0.03,2,0.4,2.95c0.36,0.95,1.04,1.83,2.04,2.64c0.99,0.81,2.4,1.46,4.23,1.95
			c0.97,0.24,2.08,0.28,3.31,0.12c1.24-0.16,2.43-0.52,3.59-1.06s2.22-1.25,3.19-2.1C81.36,64.2,82.07,63.22,82.52,62.13z
			 M72.48,40.85c1.95,0,3.4-0.76,4.38-2.28s1.46-4,1.46-7.45c0-2.92-0.7-5.27-2.1-7.05c-1.4-1.78-3.29-2.67-5.68-2.67
			c-1.78,0-3.2,0.77-4.26,2.31c-1.05,1.54-1.58,4.01-1.58,7.42s0.71,5.88,2.13,7.42C68.25,40.08,70.13,40.85,72.48,40.85z"/>
		<path class="st0" d="M107.2,10.03l-5.77,7.6v0.12l9.18-1.22v4.13l-9.18-1.09v0.12l5.84,7.29l-3.83,2.19l-3.65-8.51h-0.12
			l-3.95,8.57l-3.46-2.19l5.78-7.42v-0.12l-9,1.16v-4.13l8.94,1.16v-0.12l-5.71-7.42l3.71-2.13l3.77,8.45h0.12l3.71-8.51
			L107.2,10.03z"/>
	</g>
	<path class="st1" d="M3.43,66.53c-0.04,0.09-0.1,0.19-0.19,0.29c-0.09,0.1-0.19,0.19-0.32,0.28s-0.27,0.15-0.43,0.2
		c-0.16,0.05-0.34,0.08-0.53,0.08c-0.72,0-1.23-0.17-1.52-0.53C0.15,66.5,0,65.96,0,65.25v-1.82c0-0.35,0.03-0.66,0.1-0.92
		c0.07-0.26,0.18-0.48,0.33-0.65c0.15-0.17,0.36-0.3,0.6-0.38c0.25-0.08,0.56-0.12,0.92-0.12c0.16,0,0.32,0.03,0.48,0.08
		c0.16,0.05,0.31,0.12,0.44,0.2c0.13,0.08,0.25,0.17,0.34,0.27s0.17,0.19,0.2,0.28v-2.73h1.33v7.83H3.99L3.43,66.53z M3.43,63.65
		c0-0.18-0.04-0.34-0.12-0.48C3.22,63.03,3.12,62.91,3,62.82s-0.25-0.16-0.39-0.21c-0.14-0.05-0.27-0.07-0.39-0.07
		c-0.11,0-0.22,0.01-0.33,0.02c-0.11,0.02-0.2,0.05-0.29,0.1c-0.09,0.05-0.16,0.12-0.2,0.21c-0.05,0.09-0.07,0.21-0.07,0.35v2.24
		c0,0.15,0.03,0.27,0.07,0.36c0.05,0.09,0.11,0.16,0.2,0.21c0.08,0.05,0.18,0.09,0.28,0.11c0.11,0.02,0.22,0.03,0.34,0.03
		c0.12,0,0.25-0.02,0.39-0.07C2.75,66.06,2.88,65.99,3,65.9c0.12-0.09,0.22-0.21,0.31-0.35c0.08-0.14,0.12-0.3,0.12-0.48V63.65z"/>
	<path class="st1" d="M10.28,67.26L9.71,66.5c-0.04,0.1-0.11,0.2-0.21,0.3c-0.1,0.1-0.22,0.19-0.36,0.28
		c-0.13,0.08-0.29,0.15-0.46,0.2c-0.17,0.05-0.34,0.08-0.51,0.08c-0.32,0-0.6-0.04-0.82-0.11c-0.22-0.07-0.41-0.19-0.55-0.35
		c-0.14-0.16-0.25-0.37-0.31-0.63c-0.07-0.26-0.1-0.56-0.1-0.92v-3.91h1.33v4c0,0.29,0.06,0.49,0.17,0.58
		c0.11,0.09,0.28,0.14,0.5,0.14c0.13,0,0.27-0.03,0.42-0.08c0.15-0.05,0.29-0.13,0.42-0.23c0.13-0.1,0.24-0.21,0.33-0.35
		c0.09-0.14,0.13-0.28,0.13-0.44v-3.62h1.34l-0.01,5.82H10.28z"/>
	<path class="st1" d="M20.61,67.26h-1.33v-3.95c0-0.29-0.06-0.49-0.17-0.6c-0.11-0.1-0.28-0.16-0.5-0.16c-0.12,0-0.25,0.02-0.4,0.07
		c-0.14,0.05-0.28,0.12-0.4,0.21c-0.12,0.09-0.23,0.21-0.31,0.35c-0.08,0.14-0.12,0.3-0.12,0.48v3.59h-1.33v-3.97
		c0-0.27-0.08-0.46-0.22-0.57c-0.15-0.11-0.33-0.16-0.55-0.16c-0.12,0-0.25,0.02-0.38,0.07c-0.13,0.05-0.25,0.12-0.37,0.21
		c-0.11,0.09-0.21,0.2-0.28,0.34c-0.08,0.14-0.11,0.3-0.11,0.48v3.6h-1.33v-5.82h0.77l0.56,0.72c0.04-0.1,0.1-0.2,0.19-0.29
		c0.09-0.1,0.2-0.18,0.32-0.26c0.12-0.08,0.26-0.14,0.42-0.19c0.15-0.05,0.32-0.07,0.49-0.07c0.36,0,0.67,0.08,0.92,0.23
		c0.25,0.15,0.47,0.36,0.65,0.61c0.08-0.07,0.17-0.16,0.27-0.27c0.11-0.1,0.23-0.19,0.37-0.28c0.14-0.08,0.29-0.15,0.47-0.21
		c0.17-0.06,0.37-0.09,0.59-0.09c0.67,0,1.15,0.17,1.41,0.52c0.26,0.35,0.39,0.89,0.39,1.62V67.26z"/>
	<path class="st1" d="M24.49,66.16c0.1,0,0.22-0.01,0.34-0.03c0.12-0.02,0.23-0.06,0.33-0.12c0.1-0.06,0.18-0.14,0.25-0.24
		c0.06-0.1,0.1-0.23,0.1-0.39h1.33c0,0.33-0.06,0.62-0.18,0.87c-0.12,0.25-0.29,0.45-0.5,0.62c-0.21,0.16-0.46,0.29-0.74,0.37
		c-0.29,0.08-0.6,0.12-0.92,0.12c-0.73,0-1.31-0.17-1.74-0.52c-0.43-0.35-0.64-0.87-0.64-1.56v-1.82c0-0.71,0.22-1.25,0.64-1.6
		c0.43-0.35,1-0.52,1.71-0.52c0.35,0,0.68,0.04,0.98,0.13c0.3,0.09,0.55,0.22,0.76,0.39c0.21,0.18,0.37,0.4,0.49,0.66
		c0.12,0.26,0.17,0.58,0.17,0.94v1.22h-3.43v0.71c0,0.15,0.03,0.27,0.1,0.37c0.06,0.1,0.15,0.18,0.25,0.24
		c0.1,0.06,0.22,0.1,0.34,0.13C24.25,66.15,24.37,66.16,24.49,66.16 M23.45,63.58h2.1v-0.24c0-0.15-0.03-0.28-0.1-0.38
		c-0.07-0.1-0.15-0.18-0.26-0.25c-0.1-0.06-0.22-0.11-0.34-0.14c-0.12-0.03-0.25-0.05-0.37-0.05c-0.11,0-0.23,0.02-0.35,0.05
		c-0.12,0.03-0.24,0.08-0.33,0.14s-0.18,0.15-0.24,0.25c-0.06,0.1-0.1,0.23-0.1,0.38V63.58z"/>
	<path class="st1" d="M31.38,66.53c-0.04,0.09-0.1,0.19-0.19,0.29c-0.09,0.1-0.19,0.19-0.32,0.28c-0.13,0.08-0.27,0.15-0.43,0.2
		c-0.16,0.05-0.34,0.08-0.53,0.08c-0.72,0-1.23-0.17-1.52-0.53c-0.29-0.35-0.44-0.88-0.44-1.59v-1.82c0-0.35,0.03-0.66,0.1-0.92
		c0.07-0.26,0.18-0.48,0.33-0.65c0.15-0.17,0.36-0.3,0.6-0.38c0.25-0.08,0.56-0.12,0.92-0.12c0.16,0,0.32,0.03,0.48,0.08
		c0.16,0.05,0.31,0.12,0.44,0.2s0.25,0.17,0.34,0.27s0.17,0.19,0.2,0.28v-2.73h1.33v7.83h-0.77L31.38,66.53z M31.38,63.65
		c0-0.18-0.04-0.34-0.12-0.48c-0.08-0.14-0.18-0.26-0.3-0.35c-0.12-0.09-0.25-0.16-0.39-0.21c-0.14-0.05-0.27-0.07-0.39-0.07
		c-0.11,0-0.22,0.01-0.33,0.02c-0.11,0.02-0.2,0.05-0.29,0.1c-0.09,0.05-0.15,0.12-0.2,0.21c-0.05,0.09-0.08,0.21-0.08,0.35v2.24
		c0,0.15,0.03,0.27,0.08,0.36c0.05,0.09,0.11,0.16,0.2,0.21c0.08,0.05,0.18,0.09,0.28,0.11c0.11,0.02,0.22,0.03,0.34,0.03
		c0.12,0,0.25-0.02,0.39-0.07c0.14-0.04,0.27-0.11,0.39-0.21c0.12-0.09,0.22-0.21,0.3-0.35c0.08-0.14,0.12-0.3,0.12-0.48V63.65z"/>
	<path class="st1" d="M35.85,60.68h-1.39v-1.24h1.39V60.68z M35.84,67.26h-1.37v-5.82h1.37V67.26z"/>
	<path class="st1" d="M36.91,61.44h0.65l0.56-1.52h0.77v1.52h1.64v1.16h-1.64v3.08c0,0.32,0.16,0.49,0.49,0.49
		c0.11,0,0.27-0.02,0.49-0.05c0.21-0.03,0.48-0.09,0.8-0.18v1.16c-0.09,0.04-0.2,0.07-0.33,0.11c-0.13,0.03-0.26,0.06-0.39,0.08
		c-0.13,0.02-0.26,0.04-0.38,0.05c-0.12,0.01-0.23,0.02-0.31,0.02c-0.24,0-0.46-0.02-0.67-0.07c-0.2-0.05-0.38-0.13-0.53-0.25
		c-0.15-0.12-0.27-0.28-0.36-0.49c-0.09-0.2-0.13-0.46-0.13-0.77V62.6h-0.65V61.44z"/>
	<path class="st1" d="M43.7,66.16c0.1,0,0.22-0.01,0.34-0.03c0.12-0.02,0.23-0.06,0.33-0.12c0.1-0.06,0.18-0.14,0.25-0.24
		c0.06-0.1,0.1-0.23,0.1-0.39h1.33c0,0.33-0.06,0.62-0.18,0.87c-0.12,0.25-0.28,0.45-0.5,0.62c-0.21,0.17-0.46,0.29-0.74,0.37
		c-0.29,0.08-0.59,0.12-0.92,0.12c-0.73,0-1.31-0.17-1.74-0.52c-0.43-0.35-0.64-0.87-0.64-1.56v-1.82c0-0.71,0.21-1.25,0.64-1.6
		c0.43-0.35,1-0.52,1.71-0.52c0.35,0,0.68,0.04,0.97,0.13c0.3,0.09,0.55,0.22,0.76,0.39c0.21,0.18,0.37,0.4,0.49,0.66
		c0.12,0.26,0.18,0.57,0.18,0.94v1.22h-3.43v0.71c0,0.15,0.03,0.27,0.1,0.37c0.06,0.1,0.15,0.18,0.25,0.24
		c0.1,0.06,0.21,0.1,0.34,0.13S43.58,66.16,43.7,66.16 M43.28,60.67h-1.38v-1.23h1.38V60.67z M42.65,63.58h2.1v-0.24
		c0-0.15-0.03-0.28-0.1-0.38c-0.07-0.1-0.15-0.18-0.26-0.25c-0.1-0.06-0.22-0.11-0.34-0.14s-0.25-0.05-0.37-0.05
		c-0.11,0-0.23,0.02-0.36,0.05s-0.24,0.08-0.33,0.14c-0.1,0.06-0.18,0.15-0.24,0.25c-0.06,0.1-0.1,0.23-0.1,0.38V63.58z
		 M45.55,60.67h-1.38v-1.23h1.38V60.67z"/>
</g>
</svg>
